<?xml version="1.0" encoding="iso-8859-1"?>
<!-- Generator: Adobe Illustrator 19.0.0, SVG Export Plug-In . SVG Version: 6.00 Build 0)  -->
<svg xmlns="http://www.w3.org/2000/svg" xmlns:xlink="http://www.w3.org/1999/xlink" version="1.1" id="Capa_1" x="0px" y="0px" viewBox="0 0 512 512" style="enable-background:new 0 0 512 512;" xml:space="preserve" width="512px" height="512px">
<g>
	<g>
		<path d="M10,492c-5.51,0-10,4.49-10,10s4.49,10,10,10s10-4.49,10-10S15.51,492,10,492z" fill="#4b4c49"/>
	</g>
</g>
<g>
	<g>
		<path d="M502,492H337.198l-6.392-31.961c-0.598-2.992-2.498-5.191-5.035-6.571L324.132,392H356c2.652,0,5.196-1.304,7.071-3.179    l40-40.125c3.905-3.905,3.905-10.3,0-14.205l-40-39.781c-1.875-1.875-4.419-2.71-7.071-2.71h-34.523l-0.531-20H356    c5.523,0,10-4.978,10-10.5v-80c0-5.522-4.477-9.5-10-9.5h-37.709l-0.531-20H396c2.652,0,5.196-1.304,7.071-3.179l40-40.125    c3.905-3.905,3.905-10.3,0-14.205l-40-39.781C401.196,52.835,398.652,52,396,52h-80.895l-1.109-42.016    C313.853,4.567,309.419,0,304,0h-56c-5.419,0-9.853,4.567-9.997,9.984L236.895,52H116c-5.523,0-10,3.978-10,9.5v80    c0,5.522,4.477,10.5,10,10.5h118.24l-0.531,20H116c-2.652,0-5.196,0.804-7.071,2.679l-40,39.875    c-3.905,3.905-3.905,10.175,0,14.08l40,40.219c1.875,1.875,4.419,3.147,7.071,3.147h115.054l-0.531,20H168    c-5.523,0-10,3.978-10,9.5v80c0,5.522,4.477,10.5,10,10.5h59.868l-1.639,61.468c-2.537,1.38-4.437,3.705-5.035,6.696L214.802,492    H50c-5.51,0-10,4.49-10,10s4.49,10,10,10h452c5.51,0,10-4.49,10-10S507.51,492,502,492z M257.738,20h36.523l0.836,32h-38.196    L257.738,20z M126,132V72h265.858l30,30l-30,30H126z M298.284,172h-44.568l0.531-20h43.506L298.284,172z M120.142,252l-30-30    l30-30H346v60H120.142z M301.469,292H250.53l0.531-20h49.877L301.469,292z M178,372v-60h173.858l30,30l-30,30H178z M305.731,452    h-59.462l1.606-60h56.25L305.731,452z M235.198,492l4-20h73.604l4,20H235.198z" fill="#4b4c49"/>
	</g>
</g>
<g>
	<g>
		<path d="M172,91h-16c-5.523,0-10,4.478-10,10c0,5.522,4.477,10,10,10h16c5.523,0,10-4.478,10-10C182,95.478,177.523,91,172,91z" fill="#4b4c49"/>
	</g>
</g>
<g>
	<g>
		<path d="M372,91h-80c-5.523,0-10,4.478-10,10c0,5.522,4.477,10,10,10h80c5.523,0,10-4.478,10-10C382,95.478,377.523,91,372,91z" fill="#4b4c49"/>
	</g>
</g>
<g>
	<g>
		<path d="M252,91h-40c-5.523,0-10,4.478-10,10c0,5.522,4.477,10,10,10h40c5.523,0,10-4.478,10-10C262,95.478,257.523,91,252,91z" fill="#4b4c49"/>
	</g>
</g>
<g>
	<g>
		<path d="M316,212h-50c-5.523,0-10,4.478-10,10c0,5.522,4.477,10,10,10h50c5.523,0,10-4.478,10-10C326,216.478,321.523,212,316,212    z" fill="#4b4c49"/>
	</g>
</g>
<g>
	<g>
		<path d="M226,212c-5.52,0-10,4.479-10,10c0,5.52,4.48,10,10,10s10-4.48,10-10C236,216.479,231.52,212,226,212z" fill="#4b4c49"/>
	</g>
</g>
<g>
	<g>
		<path d="M186,212h-50c-5.523,0-10,4.478-10,10c0,5.522,4.477,10,10,10h50c5.523,0,10-4.478,10-10C196,216.478,191.523,212,186,212    z" fill="#4b4c49"/>
	</g>
</g>
<g>
	<g>
		<path d="M208,332c-5.51,0-10,4.49-10,10s4.49,10,10,10s10-4.49,10-10S213.51,332,208,332z" fill="#4b4c49"/>
	</g>
</g>
<g>
	<g>
		<path d="M328,332h-80c-5.51,0-10,4.49-10,10s4.49,10,10,10h80c5.51,0,10-4.49,10-10S333.51,332,328,332z" fill="#4b4c49"/>
	</g>
</g>
<g>
</g>
<g>
</g>
<g>
</g>
<g>
</g>
<g>
</g>
<g>
</g>
<g>
</g>
<g>
</g>
<g>
</g>
<g>
</g>
<g>
</g>
<g>
</g>
<g>
</g>
<g>
</g>
<g>
</g>
</svg>
